<svg width="320" height="128" viewBox="0 0 320 128" fill="none" xmlns="http://www.w3.org/2000/svg">
<g clip-path="url(#clip0_183_23)">
<path fill-rule="evenodd" clip-rule="evenodd" d="M79.7316 46.1685C79.6495 43.5154 79.4755 41.0263 79.2036 38.7223C80.7195 38.9962 81.9354 39.1286 82.856 39.1286C83.2896 39.1286 83.7612 39.0891 84.2758 39.0108C84.7915 38.9251 85.3991 38.8322 86.1035 38.7223C85.9412 40.872 85.8634 43.0162 85.8634 45.1653H86.0245C88.8806 40.3334 92.8999 37.9232 98.0786 37.9232C99.4274 37.9232 100.748 38.1187 102.043 38.5237C103.338 38.9251 104.51 39.4747 105.564 40.1749C106.618 40.872 107.519 41.7143 108.276 42.7029C109.03 43.7 109.543 44.7603 109.811 45.8868H109.977C111.278 43.3071 113.056 41.3396 115.308 39.9672C117.559 38.6045 120.149 37.9232 123.082 37.9232C124.872 37.9232 126.53 38.1582 128.05 38.6422C129.569 39.1286 130.883 39.8743 131.997 40.8945C133.11 41.9177 133.978 43.2288 134.602 44.838C135.227 46.4485 135.537 48.3826 135.537 50.6343C135.537 51.5464 135.511 52.5399 135.454 53.6129C135.402 54.6884 135.346 55.9339 135.293 57.3555C135.24 58.7753 135.183 60.3863 135.131 62.1808C135.078 63.9825 135.052 66.0575 135.052 68.4155C135.052 69.8705 135.062 71.2654 135.091 72.608C135.119 73.9428 135.183 75.3972 135.293 76.9499C134.698 76.8382 134.104 76.786 133.509 76.786H131.805H130.018C129.421 76.786 128.827 76.8382 128.232 76.9499C128.392 75.6079 128.567 72.8934 128.76 68.8212C128.949 64.7464 129.045 59.057 129.045 51.7596C129.045 50.4181 128.896 49.1611 128.595 47.9812C128.294 46.8031 127.818 45.7829 127.167 44.917C126.517 44.0674 125.645 43.3794 124.559 42.8669C123.471 42.3647 122.114 42.1017 120.482 42.1017C118.528 42.1017 116.869 42.4825 115.512 43.2288C114.151 43.9818 113.091 44.8647 112.332 45.8868C111.896 46.4758 111.556 47.0649 111.311 47.6539C111.067 48.246 110.879 49.1471 110.739 50.3526C110.603 51.558 110.512 53.2468 110.456 55.4214C110.402 57.5972 110.377 60.5806 110.377 64.3948C110.377 66.7006 110.416 68.8084 110.495 70.7134C110.578 72.6214 110.67 74.697 110.778 76.9499C109.551 76.8382 108.375 76.786 107.248 76.786C106.125 76.786 104.95 76.8382 103.717 76.9499C103.959 73.9968 104.127 70.997 104.222 67.9376C104.319 64.8794 104.369 61.8735 104.369 58.9192C104.369 56.4051 104.355 54.4267 104.329 53.013C104.299 51.5835 104.232 50.457 104.124 49.6336C104.018 48.7931 103.87 48.1142 103.682 47.5756C103.493 47.0381 103.235 46.4485 102.911 45.8084C102.321 44.7864 101.389 43.9168 100.124 43.1893C98.8596 42.4685 97.5513 42.1017 96.2037 42.1017C92.65 42.1017 90.037 43.2537 88.3661 45.5667C86.6952 47.8725 85.8634 51.1135 85.8634 55.3042V62.1425C85.8634 64.5515 85.9026 67.0935 85.981 69.7503C86.0637 72.4052 86.2388 74.8081 86.5108 76.9499C85.265 76.8382 84.0461 76.786 82.856 76.786C81.6677 76.786 80.4482 76.8382 79.2036 76.9499C79.4755 74.8081 79.6495 72.4052 79.7316 69.7503C79.8155 67.0935 79.8541 64.5515 79.8541 62.1425V53.772C79.8541 51.3612 79.8155 48.8198 79.7316 46.1685Z" fill="#646F77"/>
<path fill-rule="evenodd" clip-rule="evenodd" d="M151.731 64.4735C152.137 66.5679 152.828 68.4286 153.803 70.0651C154.777 71.7029 156.075 73.0079 157.699 73.9698C159.322 74.9372 161.322 75.4224 163.704 75.4224C166.085 75.4224 168.087 74.9372 169.712 73.9698C171.334 73.0079 172.632 71.7029 173.606 70.0651C174.581 68.4286 175.271 66.5679 175.677 64.4735C176.083 62.3839 176.284 60.2099 176.284 57.9558C176.284 55.7034 176.083 53.5361 175.677 51.4411C175.271 49.3442 174.581 47.4848 173.606 45.8464C172.632 44.2086 171.334 42.9151 169.712 41.9447C168.087 40.9743 166.085 40.4891 163.704 40.4891C161.322 40.4891 159.322 40.9743 157.699 41.9447C156.075 42.9151 154.777 44.2086 153.803 45.8464C152.828 47.4848 152.137 49.3442 151.731 51.4411C151.325 53.5361 151.124 55.7034 151.124 57.9558C151.124 60.2099 151.325 62.3839 151.731 64.4735ZM145.727 48.6647C146.89 46.1166 148.415 44.0544 150.311 42.4682C152.203 40.8851 154.331 39.7295 156.682 39.0105C159.037 38.2775 161.377 37.9229 163.704 37.9229C166.085 37.9229 168.441 38.2775 170.766 39.0105C173.091 39.7295 175.202 40.8851 177.098 42.4682C178.989 44.0544 180.52 46.1166 181.685 48.6647C182.848 51.2103 183.429 54.3098 183.429 57.9558C183.429 61.6048 182.848 64.7079 181.685 67.2505C180.52 69.804 178.989 71.8663 177.098 73.4457C175.202 75.0301 173.091 76.1426 170.766 76.7857C168.441 77.4336 166.085 77.7549 163.704 77.7549C161.377 77.7549 159.037 77.4336 156.682 76.7857C154.331 76.1426 152.203 75.0301 150.311 73.4457C148.415 71.8663 146.89 69.804 145.727 67.2505C144.561 64.7079 143.979 61.6048 143.979 57.9558C143.979 54.3098 144.561 51.2103 145.727 48.6647Z" fill="#646F77"/>
<path fill-rule="evenodd" clip-rule="evenodd" d="M193.292 71.2319C193.86 71.8792 194.536 72.4822 195.32 73.0464C196.106 73.6099 196.997 74.0793 197.998 74.4546C198.998 74.8347 200.069 75.0169 201.205 75.0169C202.232 75.0169 203.22 74.8608 204.167 74.5317C205.112 74.2184 205.954 73.7593 206.684 73.1708C207.414 72.5812 207.995 71.8294 208.429 70.9173C208.86 69.9997 209.078 68.9528 209.078 67.7741C209.078 66.1114 208.604 64.8392 207.659 63.9496C206.711 63.0703 205.535 62.3446 204.128 61.7823C202.718 61.2181 201.178 60.7202 199.501 60.2939C197.823 59.8627 196.281 59.2603 194.873 58.4794C193.466 57.6991 192.287 56.6667 191.342 55.383C190.395 54.0992 189.923 52.3248 189.923 50.0713C189.923 48.2963 190.22 46.6791 190.815 45.2053C191.409 43.7266 192.277 42.4562 193.414 41.3796C194.55 40.3071 195.957 39.4624 197.634 38.8394C199.31 38.2236 201.231 37.923 203.399 37.923C205.397 37.923 207.09 38.1848 208.471 38.7222C209.849 39.2608 211.16 39.7436 212.405 40.1748C211.973 40.9739 211.566 41.9704 211.19 43.1491C210.809 44.3272 210.566 45.2454 210.46 45.8866H209.485C209.049 44.6029 208.213 43.4449 206.968 42.4289C205.723 41.4069 204.181 40.8944 202.34 40.8944C201.528 40.8944 200.72 41.0261 199.907 41.3006C199.095 41.5648 198.364 41.9704 197.715 42.5066C197.067 43.0435 196.525 43.7388 196.091 44.6029C195.655 45.4537 195.442 46.4757 195.442 47.6538C195.442 49.3705 195.913 50.7089 196.861 51.6362C197.81 52.5799 198.986 53.3128 200.391 53.8503C201.799 54.3883 203.341 54.8595 205.019 55.2652C206.698 55.6647 208.24 56.2295 209.647 56.954C211.055 57.6754 212.23 58.6828 213.178 59.9684C214.122 61.2564 214.597 63.0308 214.597 65.285C214.597 66.8377 214.257 68.3613 213.584 69.8704C212.907 71.3697 211.932 72.7257 210.661 73.9299C209.39 75.1353 207.861 76.079 206.076 76.7458C204.289 77.4132 202.259 77.7544 199.986 77.7544C197.498 77.7544 195.415 77.5121 193.737 77.0336C192.059 76.5502 190.652 75.9867 189.516 75.3436C189.84 74.6441 190.176 73.6937 190.53 72.4822C190.883 71.2792 191.058 70.2681 191.058 69.4641H192.032C192.304 69.9997 192.723 70.5894 193.292 71.2319Z" fill="#646F77"/>
<path fill-rule="evenodd" clip-rule="evenodd" d="M241.603 57.7142C240.391 57.9292 239.165 58.1593 237.925 58.3974C236.688 58.6433 235.462 58.9524 234.251 59.3252C233.038 59.7048 231.961 60.21 231.02 60.8586C230.078 61.4992 229.326 62.2978 228.757 63.2682C228.192 64.2386 227.909 65.4665 227.909 66.9737C227.909 69.4902 228.635 71.397 230.092 72.6856C231.545 73.9699 233.16 74.6112 234.937 74.6112C236.985 74.6112 238.856 74.0483 240.552 72.9212C242.25 71.7941 243.554 70.4867 244.469 68.9795L244.793 56.9138C243.879 57.2314 242.815 57.5047 241.603 57.7142ZM231.482 38.8867C233.537 38.2363 235.648 37.923 237.813 37.923C239.763 37.923 241.549 38.1981 243.174 38.761C244.803 39.3239 246.19 40.1346 247.342 41.1767C248.495 42.226 249.4 43.4897 250.058 44.9557C250.715 46.4374 251.045 48.06 251.045 49.8307C251.045 52.8889 250.99 55.9337 250.88 58.9579C250.772 61.9972 250.719 65.2011 250.719 68.5787C250.719 69.2266 250.731 69.9098 250.76 70.6282C250.788 71.3575 250.907 72.0042 251.125 72.5678C251.339 73.1319 251.653 73.5953 252.06 73.9699C252.465 74.3483 253.073 74.5316 253.885 74.5316C254.157 74.5316 254.441 74.5195 254.737 74.4934C255.036 74.4679 255.32 74.3756 255.591 74.2183V75.9866C254.991 76.2484 254.249 76.4737 253.357 76.6279C252.466 76.7858 251.478 76.8696 250.395 76.8696C248.637 76.8696 247.293 76.4263 246.358 75.5415C245.424 74.6574 244.879 73.5175 244.714 72.1214C242.772 74.0483 240.855 75.4753 238.97 76.3862C237.081 77.2977 234.762 77.7544 232.014 77.7544C230.663 77.7544 229.342 77.5661 228.047 77.1921C226.756 76.8119 225.607 76.1962 224.612 75.3442C223.612 74.4794 222.802 73.4459 222.185 72.2405C221.564 71.0357 221.253 69.6541 221.253 68.1014C221.253 64.8793 222.265 62.384 224.289 60.609C226.31 58.8425 229.101 57.6644 232.662 57.0723C235.57 56.5883 237.85 56.1754 239.495 55.828C241.14 55.474 242.352 55.1139 243.135 54.741C243.917 54.3609 244.386 53.9212 244.551 53.4105C244.714 52.9029 244.793 52.2391 244.793 51.4406C244.793 50.0991 244.632 48.8069 244.308 47.5754C243.981 46.3432 243.47 45.2708 242.765 44.3545C242.061 43.4448 241.14 42.7033 240.004 42.1404C238.867 41.5781 237.487 41.3006 235.865 41.3006C233.699 41.3006 231.685 41.7815 229.818 42.7434C227.952 43.7126 226.558 45.0559 225.636 46.7714H224.745V42.5867C227.179 40.7662 229.425 39.5274 231.482 38.8867Z" fill="#646F77"/>
<path fill-rule="evenodd" clip-rule="evenodd" d="M266.589 46.1685C266.506 43.5154 266.331 41.0262 266.059 38.7223C267.575 38.9962 268.792 39.1285 269.714 39.1285C270.632 39.1285 271.851 38.9962 273.366 38.7223C273.095 41.0262 272.92 43.5154 272.837 46.1685C272.758 48.8198 272.716 51.3612 272.716 53.772V62.1425C272.716 64.5515 272.758 67.0935 272.837 69.7502C272.92 72.4052 273.095 74.8081 273.366 76.9499C272.121 76.8382 270.903 76.786 269.714 76.786C268.52 76.786 267.305 76.8382 266.059 76.9499C266.331 74.8081 266.506 72.4052 266.589 69.7502C266.668 67.0935 266.711 64.5515 266.711 62.1425V53.772C266.711 51.3612 266.668 48.8198 266.589 46.1685Z" fill="#646F77"/>
<path fill-rule="evenodd" clip-rule="evenodd" d="M286.191 48.9447C287.381 46.4252 288.935 44.3411 290.858 42.7033C292.776 41.0668 294.983 39.8613 297.473 39.0889C299.961 38.3086 302.507 37.923 305.104 37.923C308.079 37.923 310.744 38.2776 313.101 39.0106C315.455 39.7296 317.142 40.5488 318.173 41.459C317.792 42.2649 317.452 43.1108 317.158 43.9938C316.858 44.8779 316.601 45.8082 316.386 46.7714H315.738C315.358 46.07 314.843 45.3643 314.196 44.6417C313.545 43.9172 312.775 43.2395 311.881 42.6256C310.989 42.0104 310.002 41.4997 308.918 41.0983C307.836 40.7 306.646 40.4893 305.348 40.4893C302.913 40.4893 300.813 40.9338 299.056 41.8264C297.298 42.7033 295.862 43.93 294.755 45.4797C293.646 47.0379 292.833 48.8743 292.318 50.9955C291.803 53.1172 291.548 55.4096 291.548 57.8788C291.548 63.4006 292.737 67.5767 295.119 70.392C297.501 73.2096 300.991 74.6112 305.592 74.6112C306.672 74.6112 307.782 74.4679 308.918 74.1728C310.055 73.877 311.164 73.4774 312.247 72.968C313.327 72.4572 314.345 71.8524 315.289 71.1535C316.237 70.4588 317.063 69.7064 317.766 68.8999L318.173 69.1422C317.902 70.432 317.737 71.7425 317.683 73.0918C316.063 74.375 314.045 75.4747 311.637 76.3862C309.228 77.2971 306.728 77.7544 304.128 77.7544C301.804 77.7544 299.463 77.4131 297.107 76.7457C294.755 76.0789 292.629 74.9513 290.736 73.3663C288.839 71.7808 287.314 69.7392 286.152 67.2105C284.987 64.6952 284.404 61.6049 284.404 57.9559C284.404 54.4647 284.999 51.4679 286.191 48.9447Z" fill="#646F77"/>
<path fill-rule="evenodd" clip-rule="evenodd" d="M273.681 31.615C273.681 33.8273 271.871 35.623 269.639 35.623C267.407 35.623 265.597 33.8273 265.597 31.615C265.597 29.4016 267.407 27.6071 269.639 27.6071C271.871 27.6071 273.681 29.4016 273.681 31.615Z" fill="#646F77"/>
<path fill-rule="evenodd" clip-rule="evenodd" d="M82.8144 97.6774C82.8144 99.9528 82.8542 100.235 84.1258 100.386L84.663 100.451C84.7818 100.559 84.742 100.928 84.6232 100.993C83.49 100.95 82.834 100.928 82.0396 100.928C81.2048 100.928 80.4894 100.95 79.6147 100.993C79.4959 100.928 79.4561 100.581 79.5749 100.451L79.9926 100.386C81.1454 100.213 81.1846 99.9528 81.1846 97.6774V89.681C81.1846 87.8391 81.1454 87.4711 80.2505 87.3624L79.5357 87.2762C79.396 87.1456 79.4162 86.8208 79.5749 86.7339C80.6284 86.5821 81.8608 86.5609 83.5096 86.5609C85.1591 86.5609 86.3915 86.7989 87.3256 87.428C88.2394 88.0559 88.915 89.1824 88.915 90.6781C88.915 92.6717 87.7825 93.6682 86.928 94.1231C86.054 94.5785 85.0005 94.7734 84.1852 94.7734C84.0468 94.7085 84.0468 94.3836 84.1656 94.3399C86.3119 93.9069 87.0873 92.5849 87.0873 90.6999C87.0873 88.5976 85.9542 87.2325 83.8875 87.2325C82.834 87.2325 82.8144 87.3193 82.8144 88.0122V97.6774Z" fill="#646F77"/>
<path fill-rule="evenodd" clip-rule="evenodd" d="M99.0283 92.9966C99.0283 93.3865 99.0283 93.6251 99.0877 93.7119C99.1477 93.7769 99.4454 93.82 100.459 93.82C101.174 93.82 101.93 93.7332 102.506 93.2565C103.043 92.8017 103.5 92.0432 103.5 90.5694C103.5 88.8581 102.526 87.2325 100.32 87.2325C99.0877 87.2325 99.0283 87.3193 99.0283 87.926V92.9966ZM97.399 89.8977C97.399 87.8391 97.3396 87.4711 96.5243 87.3624L95.8885 87.2762C95.7495 87.1675 95.7495 86.8208 95.9081 86.7339C97.0217 86.6258 98.3925 86.5609 100.34 86.5609C101.572 86.5609 102.744 86.6689 103.659 87.2106C104.613 87.7523 105.308 88.7276 105.308 90.2445C105.308 92.3031 103.817 93.4296 102.824 93.8638C102.725 93.9937 102.824 94.2105 102.923 94.3836C104.513 97.1788 105.567 98.9125 106.918 100.148C107.256 100.473 107.753 100.711 108.289 100.754C108.389 100.798 108.408 100.971 108.309 101.057C108.13 101.123 107.812 101.166 107.435 101.166C105.745 101.166 104.732 100.624 103.321 98.4358C102.804 97.6342 101.989 96.1392 101.374 95.1633C101.075 94.6872 100.757 94.4698 99.9623 94.4698C99.0681 94.4698 99.0283 94.4917 99.0283 94.9471V97.6774C99.0283 99.9528 99.0681 100.213 100.221 100.386L100.638 100.451C100.757 100.559 100.718 100.928 100.598 100.993C99.7039 100.95 99.0283 100.928 98.2338 100.928C97.399 100.928 96.6836 100.95 95.7495 100.993C95.6301 100.928 95.5903 100.603 95.7097 100.451L96.2064 100.386C97.3592 100.235 97.399 99.9528 97.399 97.6774V89.8977Z" fill="#646F77"/>
<path fill-rule="evenodd" clip-rule="evenodd" d="M125.159 94.3834C125.159 90.8078 123.708 86.9505 119.912 86.9505C117.845 86.9505 115.163 88.4893 115.163 93.235C115.163 96.4426 116.594 100.603 120.508 100.603C122.893 100.603 125.159 98.6524 125.159 94.3834ZM113.176 93.9279C113.176 89.5945 116.156 86.2789 120.25 86.2789C124.84 86.2789 127.146 89.8981 127.146 93.7117C127.146 98.0889 124.085 101.275 120.25 101.275C115.838 101.275 113.176 97.829 113.176 93.9279Z" fill="#646F77"/>
<path fill-rule="evenodd" clip-rule="evenodd" d="M137.536 97.6774C137.536 99.9528 137.576 100.235 138.848 100.386L139.384 100.451C139.503 100.559 139.463 100.928 139.345 100.993C138.211 100.95 137.556 100.928 136.761 100.928C135.926 100.928 135.211 100.95 134.336 100.993C134.217 100.928 134.178 100.581 134.297 100.451L134.714 100.386C135.867 100.213 135.907 99.9528 135.907 97.6774V89.681C135.907 87.8391 135.867 87.4711 134.973 87.3624L134.257 87.2762C134.117 87.1456 134.138 86.8208 134.297 86.7339C135.35 86.5821 136.582 86.5609 138.232 86.5609C139.881 86.5609 141.113 86.7989 142.047 87.428C142.961 88.0559 143.636 89.1824 143.636 90.6781C143.636 92.6717 142.505 93.6682 141.649 94.1231C140.775 94.5785 139.722 94.7734 138.907 94.7734C138.768 94.7085 138.768 94.3836 138.887 94.3399C141.033 93.9069 141.809 92.5849 141.809 90.6999C141.809 88.5976 140.676 87.2325 138.609 87.2325C137.556 87.2325 137.536 87.3193 137.536 88.0122V97.6774Z" fill="#646F77"/>
<path fill-rule="evenodd" clip-rule="evenodd" d="M151.882 89.8761C151.882 87.6225 151.842 87.297 150.67 87.1452L150.352 87.1021C150.233 87.0159 150.273 86.6254 150.391 86.561C151.246 86.6035 151.922 86.6254 152.737 86.6254H156.473C157.744 86.6254 158.917 86.6254 159.156 86.561C159.275 86.929 159.395 88.4891 159.474 89.4431C159.395 89.5724 159.076 89.6162 158.977 89.4862C158.679 88.4678 158.5 87.7094 157.466 87.4276C157.049 87.3195 156.413 87.297 155.539 87.297H154.108C153.511 87.297 153.511 87.3408 153.511 88.1642V92.4982C153.511 93.1049 153.571 93.1049 154.167 93.1049H155.32C156.154 93.1049 156.771 93.0618 157.009 92.9755C157.248 92.8881 157.387 92.7581 157.487 92.2165L157.645 91.328C157.745 91.1981 158.083 91.1981 158.162 91.3493C158.162 91.8697 158.083 92.715 158.083 93.5385C158.083 94.3182 158.162 95.1422 158.162 95.6189C158.083 95.7701 157.745 95.7701 157.645 95.6408L157.466 94.7955C157.387 94.405 157.248 94.0801 156.85 93.9714C156.572 93.8852 156.095 93.8633 155.32 93.8633H154.167C153.571 93.8633 153.511 93.8852 153.511 94.4487V97.5039C153.511 98.6528 153.571 99.3894 153.889 99.7574C154.128 100.017 154.545 100.256 156.294 100.256C157.824 100.256 158.4 100.169 158.838 99.9311C159.196 99.7143 159.732 98.9558 160.248 97.8294C160.388 97.7207 160.666 97.7856 160.746 97.9806C160.606 98.739 160.109 100.408 159.851 100.993C158.062 100.949 156.294 100.928 154.525 100.928H152.737C151.882 100.928 151.207 100.949 150.034 100.993C149.915 100.928 149.875 100.581 149.994 100.452L150.65 100.386C151.783 100.278 151.882 99.9529 151.882 97.6775V89.8761Z" fill="#646F77"/>
<path fill-rule="evenodd" clip-rule="evenodd" d="M170.421 92.9966C170.421 93.3865 170.421 93.6251 170.48 93.7119C170.54 93.7769 170.838 93.82 171.852 93.82C172.567 93.82 173.322 93.7332 173.899 93.2565C174.435 92.8017 174.892 92.0432 174.892 90.5694C174.892 88.8581 173.918 87.2325 171.713 87.2325C170.48 87.2325 170.421 87.3193 170.421 87.926V92.9966ZM168.792 89.8977C168.792 87.8391 168.732 87.4711 167.917 87.3624L167.281 87.2762C167.142 87.1675 167.142 86.8208 167.301 86.7339C168.414 86.6258 169.785 86.5609 171.733 86.5609C172.965 86.5609 174.137 86.6689 175.052 87.2106C176.006 87.7523 176.7 88.7276 176.7 90.2445C176.7 92.3031 175.21 93.4296 174.217 93.8638C174.118 93.9937 174.217 94.2105 174.316 94.3836C175.906 97.1788 176.959 98.9125 178.311 100.148C178.648 100.473 179.146 100.711 179.682 100.754C179.781 100.798 179.801 100.971 179.702 101.057C179.523 101.123 179.205 101.166 178.828 101.166C177.138 101.166 176.125 100.624 174.714 98.4358C174.197 97.6342 173.382 96.1392 172.766 95.1633C172.468 94.6872 172.15 94.4698 171.355 94.4698C170.461 94.4698 170.421 94.4917 170.421 94.9471V97.6774C170.421 99.9528 170.461 100.213 171.614 100.386L172.031 100.451C172.15 100.559 172.11 100.928 171.991 100.993C171.097 100.95 170.421 100.928 169.627 100.928C168.792 100.928 168.076 100.95 167.142 100.993C167.023 100.928 166.983 100.603 167.102 100.451L167.599 100.386C168.752 100.235 168.792 99.9528 168.792 97.6774V89.8977Z" fill="#646F77"/>
<path fill-rule="evenodd" clip-rule="evenodd" d="M190.788 97.6774C190.788 99.9528 190.828 100.278 191.98 100.386L192.616 100.451C192.736 100.538 192.696 100.928 192.577 100.993C191.444 100.95 190.768 100.928 189.973 100.928C189.178 100.928 188.483 100.95 187.211 100.993C187.091 100.928 187.052 100.559 187.211 100.451L187.926 100.386C189.059 100.278 189.159 99.9528 189.159 97.6774V87.991C189.159 87.3194 189.159 87.2975 188.562 87.2975H187.469C186.615 87.2975 185.522 87.3406 185.025 87.8392C184.548 88.3159 184.349 88.7926 184.13 89.3343C183.972 89.4642 183.694 89.3561 183.614 89.1825C183.932 88.2078 184.23 86.8208 184.369 85.9537C184.429 85.9105 184.687 85.8893 184.747 85.9537C184.866 86.6471 185.521 86.6259 186.436 86.6259H194.484C195.557 86.6259 195.736 86.5822 196.035 86.0192C196.134 85.9755 196.352 85.9974 196.392 86.0842C196.174 86.9726 196.035 88.7276 196.094 89.378C196.014 89.5511 195.676 89.5511 195.577 89.4211C195.518 88.8794 195.379 88.0772 195.08 87.8392C194.623 87.4712 193.868 87.2975 192.775 87.2975H191.364C190.768 87.2975 190.788 87.3194 190.788 88.0341V97.6774Z" fill="#646F77"/>
<path fill-rule="evenodd" clip-rule="evenodd" d="M208.81 97.6344C208.81 99.9529 208.928 100.3 210.002 100.386L210.757 100.451C210.876 100.581 210.837 100.928 210.718 100.993C209.486 100.949 208.81 100.928 208.015 100.928C207.18 100.928 206.465 100.949 205.411 100.993C205.293 100.928 205.252 100.581 205.372 100.451L205.988 100.386C207.14 100.256 207.18 99.9529 207.18 97.6344V96.5292C207.18 95.3371 207.12 95.0553 206.544 93.8414L204.2 88.8576C203.523 87.4275 203.225 87.3194 202.629 87.2107L202.073 87.102C201.954 86.9508 201.973 86.6472 202.112 86.561C202.748 86.6035 203.464 86.626 204.418 86.626C205.332 86.626 206.047 86.6035 206.544 86.561C206.723 86.626 206.723 86.9727 206.603 87.102L206.345 87.1458C205.65 87.2539 205.511 87.3626 205.511 87.5356C205.511 87.7524 206.028 88.9876 206.127 89.2044C206.862 90.8075 207.597 92.52 208.372 94.0157C208.988 92.8668 209.644 91.6097 210.24 90.3527C210.797 89.2256 211.532 87.7524 211.532 87.4925C211.532 87.3626 211.174 87.2107 210.697 87.1458L210.34 87.102C210.201 86.9508 210.221 86.6472 210.379 86.561C211.095 86.6035 211.671 86.626 212.287 86.626C212.904 86.626 213.46 86.6035 214.135 86.561C214.295 86.6691 214.314 86.9727 214.176 87.102L213.619 87.2107C212.586 87.4057 211.989 88.7708 210.996 90.6345L209.744 92.9967C208.87 94.6436 208.81 94.8385 208.81 96.5073V97.6344Z" fill="#646F77"/>
<path fill-rule="evenodd" clip-rule="evenodd" d="M241.993 98.7175C241.993 99.5841 242.112 100.104 242.47 100.256C242.53 100.321 242.53 100.451 242.45 100.516C242.211 100.516 241.854 100.603 241.476 100.711C240.423 101.014 238.993 101.275 237.919 101.275C235.554 101.275 233.388 100.559 231.858 98.8693C230.666 97.5692 230.03 95.8567 230.03 93.9499C230.03 92.1081 230.587 90.2444 231.819 88.8143C233.15 87.2974 235.117 86.279 238.118 86.279C239.25 86.279 240.304 86.5176 240.641 86.6039C241.019 86.6901 241.635 86.8419 241.874 86.7988C241.874 87.5142 241.993 88.6406 242.172 89.9414C242.112 90.1144 241.754 90.1363 241.635 90.0064C241.079 87.666 239.589 86.9294 237.562 86.9294C233.706 86.9294 232.017 89.9195 232.017 93.1702C232.017 97.3305 233.984 100.603 237.979 100.603C239.211 100.603 239.946 100.321 240.165 99.9527C240.264 99.8009 240.363 99.411 240.363 98.7175V97.8503C240.363 96.0304 240.304 95.8998 239.072 95.7486L238.198 95.6405C238.038 95.5543 238.058 95.1632 238.198 95.0988C238.773 95.142 239.867 95.1632 241.039 95.1632C241.814 95.1632 242.49 95.142 243.146 95.0988C243.285 95.1857 243.305 95.51 243.166 95.6405L242.848 95.6836C242.013 95.7923 241.993 96.3984 241.993 97.5036V98.7175Z" fill="#646F77"/>
<path fill-rule="evenodd" clip-rule="evenodd" d="M253.437 92.9966C253.437 93.3865 253.437 93.6251 253.497 93.7119C253.557 93.7769 253.854 93.82 254.868 93.82C255.583 93.82 256.338 93.7332 256.915 93.2565C257.452 92.8017 257.909 92.0432 257.909 90.5694C257.909 88.8581 256.935 87.2325 254.728 87.2325C253.497 87.2325 253.437 87.3193 253.437 87.926V92.9966ZM251.807 89.8977C251.807 87.8391 251.748 87.4711 250.933 87.3624L250.297 87.2762C250.158 87.1675 250.158 86.8208 250.317 86.7339C251.43 86.6258 252.801 86.5609 254.749 86.5609C255.98 86.5609 257.154 86.6689 258.068 87.2106C259.022 87.7523 259.717 88.7276 259.717 90.2445C259.717 92.3031 258.226 93.4296 257.233 93.8638C257.134 93.9937 257.233 94.2105 257.331 94.3836C258.922 97.1788 259.976 98.9125 261.327 100.148C261.664 100.473 262.162 100.711 262.698 100.754C262.797 100.798 262.817 100.971 262.717 101.057C262.539 101.123 262.221 101.166 261.844 101.166C260.154 101.166 259.141 100.624 257.73 98.4358C257.213 97.6342 256.398 96.1392 255.782 95.1633C255.484 94.6872 255.166 94.4698 254.371 94.4698C253.476 94.4698 253.437 94.4917 253.437 94.9471V97.6774C253.437 99.9528 253.476 100.213 254.629 100.386L255.047 100.451C255.166 100.559 255.126 100.928 255.007 100.993C254.113 100.95 253.437 100.928 252.642 100.928C251.807 100.928 251.092 100.95 250.158 100.993C250.038 100.928 249.999 100.603 250.119 100.451L250.615 100.386C251.767 100.235 251.807 99.9528 251.807 97.6774V89.8977Z" fill="#646F77"/>
<path fill-rule="evenodd" clip-rule="evenodd" d="M279.567 94.3834C279.567 90.8078 278.116 86.9505 274.321 86.9505C272.254 86.9505 269.571 88.4893 269.571 93.235C269.571 96.4426 271.002 100.603 274.917 100.603C277.302 100.603 279.567 98.6524 279.567 94.3834ZM267.584 93.9279C267.584 89.5945 270.565 86.2789 274.658 86.2789C279.249 86.2789 281.554 89.8981 281.554 93.7117C281.554 98.0889 278.494 101.275 274.658 101.275C270.246 101.275 267.584 97.829 267.584 93.9279Z" fill="#646F77"/>
<path fill-rule="evenodd" clip-rule="evenodd" d="M299.795 92.0649C299.795 90.7211 299.755 88.2289 299.417 87.5791C299.278 87.3192 298.919 87.1674 298.423 87.1243L297.926 87.0805C297.808 86.9293 297.847 86.647 297.966 86.5607C298.721 86.6038 299.456 86.6257 300.231 86.6257C301.066 86.6257 301.603 86.6038 302.317 86.5607C302.477 86.6688 302.457 86.9506 302.358 87.0805L301.88 87.1243C301.384 87.1674 301.007 87.3623 300.887 87.6441C300.609 88.3594 300.609 90.851 300.609 92.0649V94.5134C300.609 96.3983 300.331 98.392 299.218 99.6927C298.363 100.711 296.893 101.275 295.422 101.275C294.05 101.275 292.68 100.993 291.706 100.083C290.652 99.1292 290.156 97.5473 290.156 94.9682V89.8545C290.156 87.6004 290.116 87.2324 288.963 87.1243L288.467 87.0805C288.348 86.9937 288.387 86.6257 288.506 86.5607C289.5 86.6038 290.176 86.6257 290.971 86.6257C291.786 86.6257 292.441 86.6038 293.415 86.5607C293.534 86.6257 293.574 86.9937 293.455 87.0805L292.977 87.1243C291.825 87.2324 291.786 87.6004 291.786 89.8545V94.5353C291.786 98.024 292.779 100.321 295.819 100.321C298.701 100.321 299.795 97.8503 299.795 94.5571V92.0649Z" fill="#646F77"/>
<path fill-rule="evenodd" clip-rule="evenodd" d="M312.072 97.6774C312.072 99.9528 312.111 100.235 313.384 100.386L313.921 100.451C314.04 100.559 314 100.928 313.881 100.993C312.748 100.95 312.092 100.928 311.297 100.928C310.462 100.928 309.747 100.95 308.872 100.993C308.754 100.928 308.714 100.581 308.833 100.451L309.25 100.386C310.403 100.213 310.443 99.9528 310.443 97.6774V89.681C310.443 87.8391 310.403 87.4711 309.508 87.3624L308.793 87.2762C308.654 87.1456 308.673 86.8208 308.833 86.7339C309.887 86.5821 311.119 86.5609 312.768 86.5609C314.417 86.5609 315.649 86.7989 316.583 87.428C317.497 88.0559 318.173 89.1824 318.173 90.6781C318.173 92.6717 317.04 93.6682 316.186 94.1231C315.312 94.5785 314.258 94.7734 313.443 94.7734C313.304 94.7085 313.304 94.3836 313.423 94.3399C315.57 93.9069 316.346 92.5849 316.346 90.6999C316.346 88.5976 315.212 87.2325 313.145 87.2325C312.092 87.2325 312.072 87.3193 312.072 88.0122V97.6774Z" fill="#646F77"/>
<path fill-rule="evenodd" clip-rule="evenodd" d="M1.66667 100.935H25.7897V74.8752H1.66667V100.935Z" fill="#939FA8"/>
<path fill-rule="evenodd" clip-rule="evenodd" d="M9.53923 74.8751H49.155V38.2397H9.53923V74.8751Z" fill="#646F77"/>
<path fill-rule="evenodd" clip-rule="evenodd" d="M49.155 65.0563H56.7759V57.499H49.155V65.0563Z" fill="#939FA8"/>
<path fill-rule="evenodd" clip-rule="evenodd" d="M25.7897 100.935H64.9008V65.0563H25.7897V100.935Z" fill="#A7B2BA"/>
</g>
<defs>
<clipPath id="clip0_183_23">
<rect width="316.667" height="75" fill="white" transform="translate(1.66667 27)"/>
</clipPath>
</defs>
</svg>
